<svg width="569" height="554" viewBox="0 0 569 554" fill="none" xmlns="http://www.w3.org/2000/svg">
<circle cx="303" cy="304" r="249" stroke="#56157E" stroke-opacity="0.5" stroke-width="2"/>
<circle cx="303" cy="304" r="148" stroke="#56157E" stroke-opacity="0.5" stroke-width="4"/>
<path d="M185.516 286.76C185.516 289.688 183.356 291.848 180.284 291.848C177.212 291.848 175.1 289.688 175.1 286.76C175.1 283.736 177.212 281.576 180.284 281.576C183.356 281.576 185.516 283.736 185.516 286.76ZM184.94 320.6H175.628V293.768H184.94V320.6ZM216.039 320.6H206.775V305.192C206.775 302.36 205.287 300.776 202.935 300.776C200.247 300.776 198.711 302.024 198.711 305.144V320.6H189.447V293.768H198.183V297.56C198.999 295.304 201.207 293.288 204.471 292.904C211.815 292.136 216.039 296.168 216.039 302.504V320.6ZM273.96 300.968L267.096 302.696C266.52 300.344 264.36 298.952 261.624 298.952C258.6 298.952 257.64 299.624 257.64 300.728C257.64 301.832 259.032 302.216 262.104 302.84C269.688 304.52 274.632 306.68 274.632 312.44C274.632 318.68 269.544 321.56 262.248 321.56C253.8 321.56 250.056 318.392 248.52 313.208L256.248 311.144C256.872 313.448 259.704 315.224 262.44 315.224C264.888 315.224 266.136 314.648 266.136 313.448C266.136 312.104 264.552 311.48 262.104 310.952C253.272 309.032 249.384 307.112 249.384 301.544C249.384 296.696 253.512 292.856 262.008 292.856C268.776 292.856 273.432 296.696 273.96 300.968ZM287.353 329.816H278.233V293.768H287.353V296.168C288.649 294.248 290.857 292.952 293.593 292.808C300.889 292.664 305.545 298.088 305.545 307.064C305.545 315.896 300.745 322.136 293.833 321.608C291.337 321.416 288.649 319.928 287.353 317.384V329.816ZM287.353 304.856V309.128C287.353 312.152 289.081 313.448 291.433 313.64C294.169 313.88 296.185 310.904 296.185 307.064C296.185 302.648 294.265 300.296 291.433 300.344C289.081 300.392 287.353 301.448 287.353 304.856ZM319.203 286.76C319.203 289.688 317.043 291.848 313.971 291.848C310.899 291.848 308.787 289.688 308.787 286.76C308.787 283.736 310.899 281.576 313.971 281.576C317.043 281.576 319.203 283.736 319.203 286.76ZM318.627 320.6H309.315V293.768H318.627V320.6ZM332.494 320.6H323.182V293.768H331.678V297.992C332.59 295.496 335.614 293 339.166 292.76C340.174 292.664 341.23 292.76 342.286 293.048L340.078 302.168C338.974 301.64 337.246 301.352 335.758 301.688C333.598 302.168 332.494 303.56 332.494 305.864V320.6ZM354.922 286.76C354.922 289.688 352.762 291.848 349.69 291.848C346.618 291.848 344.506 289.688 344.506 286.76C344.506 283.736 346.618 281.576 349.69 281.576C352.762 281.576 354.922 283.736 354.922 286.76ZM354.346 320.6H345.034V293.768H354.346V320.6ZM385.445 320.6H376.181V305.192C376.181 302.36 374.693 300.776 372.341 300.776C369.653 300.776 368.117 302.024 368.117 305.144V320.6H358.853V293.768H367.589V297.56C368.405 295.304 370.613 293.288 373.877 292.904C381.221 292.136 385.445 296.168 385.445 302.504V320.6ZM402.426 311.096H401.466C400.266 311.096 399.354 311.048 398.586 311.096C397.866 311.144 397.674 311.336 397.53 311.864C397.386 312.392 397.818 312.728 398.394 312.872C399.69 313.112 404.73 313.4 406.122 313.4C415.098 313.784 417.882 316.712 417.642 321.608C417.258 327.8 411.258 330.44 402.426 330.44C391.29 330.44 387.786 327.464 387.786 323.48C387.786 320.888 390.282 318.488 393.162 318.104C390.138 317.672 389.274 315.848 389.514 314.12C389.85 311.672 391.578 310.04 393.45 309.32C390.618 307.736 389.226 305.384 389.226 302.168C389.226 296.6 393.978 292.856 402.09 292.856C403.194 292.856 404.154 292.904 405.066 293.048C405.402 291.512 406.362 290.12 407.562 289.352C410.01 287.768 413.514 287.432 417.018 288.392L415.914 294.872C414.186 293.768 412.074 293.576 410.586 294.488C410.442 294.536 410.394 294.632 410.346 294.68C413.274 296.36 414.906 298.904 414.906 302.168C414.906 307.784 410.346 311.096 402.426 311.096ZM402.09 305.432C404.25 305.432 405.258 304.136 405.258 302.168C405.258 299.912 404.154 298.52 402.09 298.52C399.978 298.52 398.826 299.912 398.826 302.168C398.826 304.136 399.834 305.432 402.09 305.432ZM404.154 320.696C403.194 320.696 399.066 320.312 397.866 320.312C396.474 320.264 395.61 320.312 395.274 321.32C394.89 322.76 395.994 324.056 401.226 324.296C404.106 324.392 406.506 324.296 407.562 323.528C407.946 323.288 408.138 322.952 408.186 322.52C408.33 321.32 407.754 320.936 404.154 320.696ZM430.502 319.112C430.502 322.184 428.198 324.392 425.078 324.392C421.958 324.392 419.702 322.184 419.702 319.112C419.702 316.04 421.958 313.784 425.078 313.784C428.198 313.784 430.502 316.04 430.502 319.112Z" fill="#56157E"/>
<path d="M233.02 311.096H232.06C230.86 311.096 229.948 311.048 229.18 311.096C228.46 311.144 228.268 311.336 228.124 311.864C227.98 312.392 228.412 312.728 228.988 312.872C230.284 313.112 235.324 313.4 236.716 313.4C245.692 313.784 248.476 316.712 248.236 321.608C247.852 327.8 241.852 330.44 233.02 330.44C221.884 330.44 218.38 327.464 218.38 323.48C218.38 320.888 220.876 318.488 223.756 318.104C220.732 317.672 219.868 315.848 220.108 314.12C220.444 311.672 222.172 310.04 224.044 309.32C221.212 307.736 219.82 305.384 219.82 302.168C219.82 296.6 224.572 292.856 232.684 292.856C233.788 292.856 234.748 292.904 235.66 293.048C235.996 291.512 236.956 290.12 238.156 289.352C240.604 287.768 244.108 287.432 247.612 288.392L246.508 294.872C244.78 293.768 242.668 293.576 241.18 294.488C241.036 294.536 240.988 294.632 240.94 294.68C243.868 296.36 245.5 298.904 245.5 302.168C245.5 307.784 240.94 311.096 233.02 311.096ZM232.684 305.432C234.844 305.432 235.852 304.136 235.852 302.168C235.852 299.912 234.748 298.52 232.684 298.52C230.572 298.52 229.42 299.912 229.42 302.168C229.42 304.136 230.428 305.432 232.684 305.432ZM234.748 320.696C233.788 320.696 229.66 320.312 228.46 320.312C227.068 320.264 226.204 320.312 225.868 321.32C225.484 322.76 226.588 324.056 231.82 324.296C234.7 324.392 237.1 324.296 238.156 323.528C238.54 323.288 238.732 322.952 238.78 322.52C238.924 321.32 238.348 320.936 234.748 320.696Z" fill="#56157E" fill-opacity="0.5"/>
<circle cx="368.5" cy="64.5" r="64" fill="#56157E" fill-opacity="0.3" stroke="#56157E"/>
<path d="M352.416 64.2852V65.8496H337.914V64.2852H344.207V62.7734H339.689V57.3945H350.658V58.9238H341.641V61.2266H350.746V62.7734H346.123V64.2852H352.416ZM345.139 66.7637C348.566 66.7637 350.623 67.8008 350.641 69.6641C350.623 71.5098 348.566 72.5645 345.139 72.5645C341.676 72.5645 339.602 71.5098 339.602 69.6641C339.602 67.8008 341.676 66.7637 345.139 66.7637ZM345.139 68.2578C342.818 68.2578 341.57 68.75 341.588 69.6641C341.57 70.5781 342.818 71.0527 345.139 71.0527C347.406 71.0527 348.672 70.5781 348.689 69.6641C348.672 68.75 347.406 68.2578 345.139 68.2578ZM366.742 56.6738V72.5645H364.773V56.6738H366.742ZM361.996 58.3613C361.996 63.0898 360.168 67.1152 354.596 69.752L353.576 68.1875C357.733 66.21 359.667 63.5205 360.01 59.9082H354.385V58.3613H361.996ZM383.529 65.9199V67.4668H377.201V72.5645H375.268V67.4668H369.01V65.9199H383.529ZM372.701 57.3066V59.2578H379.803V57.3066H381.771V64.2676H370.768V57.3066H372.701ZM372.701 62.6855H379.803V60.8047H372.701V62.6855ZM388.926 57.834C390.367 57.834 391.554 58.6338 392.266 60.0312H395.975V56.6738H397.908V72.582H395.975V66.5703H392.406C391.721 68.1523 390.464 69.0664 388.926 69.0664C386.535 69.0664 384.848 66.9043 384.848 63.4414C384.848 60.0137 386.535 57.834 388.926 57.834ZM388.926 59.5918C387.607 59.5918 386.711 61.0156 386.729 63.4414C386.711 65.8848 387.607 67.3086 388.926 67.3086C390.244 67.3086 391.123 65.8848 391.141 63.4414C391.123 61.0156 390.244 59.5918 388.926 59.5918ZM392.811 61.6309C392.925 62.1846 392.986 62.791 392.986 63.4414C392.986 63.9951 392.942 64.5049 392.863 64.9883H395.975V61.6309H392.811Z" fill="white"/>
<circle cx="61" cy="317" r="60.5" fill="#56157E" fill-opacity="0.3" stroke="#56157E"/>
<circle cx="517" cy="433" r="51.5" fill="#56157E" fill-opacity="0.3" stroke="#56157E"/>
<path d="M482.027 428.805C482.027 431.477 482.941 434.096 485.139 435.273L483.979 436.82C482.546 436.021 481.605 434.632 481.078 432.936C480.489 434.808 479.47 436.372 477.984 437.26L476.736 435.836C479.074 434.465 480.129 431.635 480.129 428.928V426.08H482.027V428.805ZM490.711 424.674V440.564H488.83V432.514H487.195V439.791H485.35V424.955H487.195V430.932H488.83V424.674H490.711ZM507.076 437.102V438.719H492.557V437.102H498.814V434.518H494.279V429.314H503.42V427.346H494.244V425.764H505.354V430.861H496.23V432.918H505.723V434.518H500.748V437.102H507.076ZM522.615 432.531V434.096H516.48V437.014H514.494V434.096H508.096V432.531H522.615ZM521.016 438.648V440.248H509.871V435.537H511.84V438.648H521.016ZM515.338 425.025C518.766 425.025 521.033 426.273 521.033 428.277C521.033 430.281 518.766 431.512 515.338 431.512C511.91 431.512 509.643 430.281 509.643 428.277C509.643 426.273 511.91 425.025 515.338 425.025ZM515.338 426.572C513.158 426.572 511.734 427.188 511.752 428.277C511.734 429.332 513.158 429.947 515.338 429.947C517.535 429.947 518.941 429.332 518.941 428.277C518.941 427.188 517.535 426.572 515.338 426.572ZM533.953 428.488C533.936 431.406 535.465 434.324 538.049 435.432L536.889 436.996C535.061 436.152 533.716 434.465 532.986 432.391C532.257 434.632 530.895 436.46 528.961 437.365L527.766 435.73C530.42 434.588 531.967 431.547 531.967 428.488V425.957H533.953V428.488ZM541.16 424.674V440.582H539.191V424.674H541.16ZM556.031 424.674V428.506H558.246V430.141H556.031V433.938H554.08V424.674H556.031ZM551.602 425.605C551.602 429.771 548.895 432.637 544.148 433.85L543.34 432.355C547.058 431.397 549.167 429.499 549.51 427.188H544.131V425.605H551.602ZM556.031 434.605V440.564H554.08V436.17H545.449V434.605H556.031Z" fill="white"/>
<path d="M50.7891 310.959C50.7715 313.121 52.0371 315.09 54.5332 315.881L53.4785 317.41C51.7471 316.804 50.5342 315.652 49.8574 314.141C49.1543 315.872 47.8271 317.234 45.9023 317.902L44.8652 316.32C47.502 315.459 48.8203 313.332 48.8203 311.047V309.535H50.7891V310.959ZM58.2773 308.674V318.025H56.3262V313.35H53.1621V311.75H56.3262V308.674H58.2773ZM52.8984 318.447C56.2734 318.447 58.3301 319.572 58.3301 321.506C58.3301 323.439 56.2734 324.547 52.8984 324.547C49.541 324.547 47.4844 323.439 47.502 321.506C47.4844 319.572 49.541 318.447 52.8984 318.447ZM52.8984 319.959C50.6836 319.959 49.4355 320.504 49.4355 321.506C49.4355 322.473 50.6836 323.018 52.8984 323.018C55.1133 323.018 56.3789 322.473 56.3789 321.506C56.3789 320.504 55.1133 319.959 52.8984 319.959ZM66.2227 311.539C66.2227 313.49 67.4883 315.318 69.9668 316.074L69.0352 317.604C67.251 317.05 65.9854 315.916 65.291 314.475C64.5879 316.145 63.2432 317.472 61.3359 318.113L60.3516 316.566C62.918 315.723 64.2539 313.666 64.2539 311.557V311.363H60.8965V309.781H69.5273V311.363H66.2227V311.539ZM73.0605 308.674V312.488H75.2754V314.088H73.0605V318.148H71.1094V308.674H73.0605ZM67.8926 318.5C71.1797 318.5 73.2012 319.607 73.2188 321.506C73.2012 323.422 71.1797 324.547 67.8926 324.547C64.5703 324.547 62.5137 323.422 62.5137 321.506C62.5137 319.607 64.5703 318.5 67.8926 318.5ZM67.8926 320.029C65.7129 320.029 64.4648 320.539 64.4648 321.506C64.4648 322.49 65.7129 323.018 67.8926 323.018C70.0723 323.018 71.2852 322.49 71.2852 321.506C71.2852 320.539 70.0723 320.029 67.8926 320.029Z" fill="white"/>
</svg>
