<svg width="171" height="33" viewBox="0 0 171 33" fill="none" xmlns="http://www.w3.org/2000/svg">
<path d="M7.17712 3.84C7.17712 5.792 5.73713 7.232 3.68913 7.232C1.64113 7.232 0.233125 5.792 0.233125 3.84C0.233125 1.824 1.64113 0.383999 3.68913 0.383999C5.73713 0.383999 7.17712 1.824 7.17712 3.84ZM6.79313 26.4H0.585125V8.512H6.79313V26.4ZM27.5259 26.4H21.3499V16.128C21.3499 14.24 20.3579 13.184 18.7899 13.184C16.9979 13.184 15.9739 14.016 15.9739 16.096V26.4H9.79788V8.512H15.6219V11.04C16.1659 9.536 17.6379 8.192 19.8139 7.936C24.7099 7.424 27.5259 10.112 27.5259 14.336V26.4ZM66.1401 13.312L61.5641 14.464C61.1801 12.896 59.7401 11.968 57.9161 11.968C55.9001 11.968 55.2601 12.416 55.2601 13.152C55.2601 13.888 56.1881 14.144 58.2361 14.56C63.2921 15.68 66.5881 17.12 66.5881 20.96C66.5881 25.12 63.1961 27.04 58.3321 27.04C52.7001 27.04 50.2041 24.928 49.1801 21.472L54.3321 20.096C54.7481 21.632 56.6361 22.816 58.4601 22.816C60.0921 22.816 60.9241 22.432 60.9241 21.632C60.9241 20.736 59.8681 20.32 58.2361 19.968C52.3481 18.688 49.7561 17.408 49.7561 13.696C49.7561 10.464 52.5081 7.904 58.1721 7.904C62.6841 7.904 65.7881 10.464 66.1401 13.312ZM75.0684 32.544H68.9884V8.512H75.0684V10.112C75.9324 8.832 77.4044 7.968 79.2284 7.872C84.0924 7.776 87.1964 11.392 87.1964 17.376C87.1964 23.264 83.9964 27.424 79.3884 27.072C77.7244 26.944 75.9324 25.952 75.0684 24.256V32.544ZM75.0684 15.904V18.752C75.0684 20.768 76.2204 21.632 77.7884 21.76C79.6124 21.92 80.9564 19.936 80.9564 17.376C80.9564 14.432 79.6764 12.864 77.7884 12.896C76.2204 12.928 75.0684 13.632 75.0684 15.904ZM96.3021 3.84C96.3021 5.792 94.8621 7.232 92.8141 7.232C90.7661 7.232 89.3581 5.792 89.3581 3.84C89.3581 1.824 90.7661 0.383999 92.8141 0.383999C94.8621 0.383999 96.3021 1.824 96.3021 3.84ZM95.9181 26.4H89.7101V8.512H95.9181V26.4ZM105.163 26.4H98.9549V8.512H104.619V11.328C105.227 9.664 107.243 8 109.611 7.84C110.283 7.776 110.987 7.84 111.691 8.032L110.219 14.112C109.483 13.76 108.331 13.568 107.339 13.792C105.899 14.112 105.163 15.04 105.163 16.576V26.4ZM120.115 3.84C120.115 5.792 118.675 7.232 116.627 7.232C114.579 7.232 113.171 5.792 113.171 3.84C113.171 1.824 114.579 0.383999 116.627 0.383999C118.675 0.383999 120.115 1.824 120.115 3.84ZM119.731 26.4H113.523V8.512H119.731V26.4ZM140.463 26.4H134.287V16.128C134.287 14.24 133.295 13.184 131.727 13.184C129.935 13.184 128.911 14.016 128.911 16.096V26.4H122.735V8.512H128.559V11.04C129.103 9.536 130.575 8.192 132.751 7.936C137.647 7.424 140.463 10.112 140.463 14.336V26.4ZM151.784 20.064H151.144C150.344 20.064 149.736 20.032 149.224 20.064C148.744 20.096 148.616 20.224 148.52 20.576C148.424 20.928 148.712 21.152 149.096 21.248C149.96 21.408 153.32 21.6 154.248 21.6C160.232 21.856 162.088 23.808 161.928 27.072C161.672 31.2 157.672 32.96 151.784 32.96C144.36 32.96 142.024 30.976 142.024 28.32C142.024 26.592 143.688 24.992 145.608 24.736C143.592 24.448 143.016 23.232 143.176 22.08C143.4 20.448 144.552 19.36 145.8 18.88C143.912 17.824 142.984 16.256 142.984 14.112C142.984 10.4 146.152 7.904 151.56 7.904C152.296 7.904 152.936 7.936 153.544 8.032C153.768 7.008 154.408 6.08 155.208 5.568C156.84 4.512 159.176 4.288 161.512 4.928L160.776 9.248C159.624 8.512 158.216 8.384 157.224 8.992C157.128 9.024 157.096 9.088 157.064 9.12C159.016 10.24 160.104 11.936 160.104 14.112C160.104 17.856 157.064 20.064 151.784 20.064ZM151.56 16.288C153 16.288 153.672 15.424 153.672 14.112C153.672 12.608 152.936 11.68 151.56 11.68C150.152 11.68 149.384 12.608 149.384 14.112C149.384 15.424 150.056 16.288 151.56 16.288ZM152.936 26.464C152.296 26.464 149.544 26.208 148.744 26.208C147.816 26.176 147.24 26.208 147.016 26.88C146.76 27.84 147.496 28.704 150.984 28.864C152.904 28.928 154.504 28.864 155.208 28.352C155.464 28.192 155.592 27.968 155.624 27.68C155.72 26.88 155.336 26.624 152.936 26.464ZM170.502 25.408C170.502 27.456 168.966 28.928 166.886 28.928C164.806 28.928 163.302 27.456 163.302 25.408C163.302 23.36 164.806 21.856 166.886 21.856C168.966 21.856 170.502 23.36 170.502 25.408Z" fill="#484100"/>
<path d="M38.8464 20.064H38.2064C37.4064 20.064 36.7984 20.032 36.2864 20.064C35.8064 20.096 35.6784 20.224 35.5824 20.576C35.4864 20.928 35.7744 21.152 36.1584 21.248C37.0224 21.408 40.3824 21.6 41.3104 21.6C47.2944 21.856 49.1504 23.808 48.9904 27.072C48.7344 31.2 44.7344 32.96 38.8464 32.96C31.4224 32.96 29.0864 30.976 29.0864 28.32C29.0864 26.592 30.7504 24.992 32.6704 24.736C30.6544 24.448 30.0784 23.232 30.2384 22.08C30.4624 20.448 31.6144 19.36 32.8624 18.88C30.9744 17.824 30.0464 16.256 30.0464 14.112C30.0464 10.4 33.2144 7.904 38.6224 7.904C39.3584 7.904 39.9984 7.936 40.6064 8.032C40.8304 7.008 41.4704 6.08 42.2704 5.568C43.9024 4.512 46.2384 4.288 48.5744 4.928L47.8384 9.248C46.6864 8.512 45.2784 8.384 44.2864 8.992C44.1904 9.024 44.1584 9.088 44.1264 9.12C46.0784 10.24 47.1664 11.936 47.1664 14.112C47.1664 17.856 44.1264 20.064 38.8464 20.064ZM38.6224 16.288C40.0624 16.288 40.7344 15.424 40.7344 14.112C40.7344 12.608 39.9984 11.68 38.6224 11.68C37.2144 11.68 36.4464 12.608 36.4464 14.112C36.4464 15.424 37.1184 16.288 38.6224 16.288ZM39.9984 26.464C39.3584 26.464 36.6064 26.208 35.8064 26.208C34.8784 26.176 34.3024 26.208 34.0784 26.88C33.8224 27.84 34.5584 28.704 38.0464 28.864C39.9664 28.928 41.5664 28.864 42.2704 28.352C42.5264 28.192 42.6544 27.968 42.6864 27.68C42.7824 26.88 42.3984 26.624 39.9984 26.464Z" fill="#524900" fill-opacity="0.51"/>
</svg>
